HIERARCHY
ROOT Hips
{
	OFFSET 0.00000 0.00000 0.00000
	CHANNELS 6 Xposition Yposition Zposition Zrotation Yrotation Xrotation 
	JOINT LHipJoint
	{
		OFFSET 0 0 0
		CHANNELS 3 Zrotation Yrotation Xrotation
		JOINT LeftHip
		{
			OFFSET 1.77779 -1.88989 0.48267
			CHANNELS 3 Zrotation Yrotation Xrotation
			JOINT LeftKnee
			{
				OFFSET 2.53442 -6.96327 0.00000
				CHANNELS 3 Zrotation Yrotation Xrotation
				JOINT LeftAnkle
				{
					OFFSET 2.71068 -7.44755 0.00000
					CHANNELS 3 Zrotation Yrotation Xrotation
					JOINT LeftToe
					{
						OFFSET 0.17992 -0.49431 2.22524
						CHANNELS 3 Zrotation Yrotation Xrotation
						End Site
						{
							OFFSET 0.00000 -0.00000 1.14687
						}
					}
				}
			}
		}
	}
	JOINT RHipJoint
	{
		OFFSET 0 0 0
		CHANNELS 3 Zrotation Yrotation Xrotation
		JOINT RightHip
		{
			OFFSET -1.58469 -1.88989 0.48267
			CHANNELS 3 Zrotation Yrotation Xrotation
			JOINT RightKnee
			{
				OFFSET -2.60386 -7.15404 0.00000
				CHANNELS 3 Zrotation Yrotation Xrotation
				JOINT RightAnkle
				{
					OFFSET -2.73334 -7.50979 0.00000
					CHANNELS 3 Zrotation Yrotation Xrotation
					JOINT RightToe
					{
						OFFSET -0.25618 -0.70384 2.21822
						CHANNELS 3 Zrotation Yrotation Xrotation
						End Site
						{
							OFFSET -0.00000 -0.00000 1.16381
						}
					}
				}
			}
		}
	}
	JOINT lowerback
	{
		OFFSET 0 0 0
		CHANNELS 3 Zrotation Yrotation Xrotation
		JOINT Chest
		{
			OFFSET 0.03410 2.01612 -0.22230
			CHANNELS 3 Zrotation Yrotation Xrotation
			JOINT Chest2
			{
				OFFSET 0.03465 2.03012 0.00937
				CHANNELS 3 Zrotation Yrotation Xrotation
				JOINT lowerneck
				{
					OFFSET 0 0 0
					CHANNELS 3 Zrotation Yrotation Xrotation
					JOINT Neck
					{
						OFFSET -0.00219 1.70459 0.20857
						CHANNELS 3 Zrotation Yrotation Xrotation
						JOINT Head
						{
							OFFSET 0.02518 1.72339 -0.22179
							CHANNELS 3 Zrotation Yrotation Xrotation
							End Site
							{
								OFFSET 0.00282 1.74122 -0.09823
							}
						}
					}
				}
				JOINT LeftCollar
				{
					OFFSET 0 0 0
					CHANNELS 3 Zrotation Yrotation Xrotation
					JOINT LeftShoulder
					{
						OFFSET 3.36358 1.00547 -0.37661
CHANNELS 3 Zrotation Xrotation Yrotation
						JOINT LeftElbow
						{
OFFSET 0 -5.065070 0.000000
CHANNELS 3 Zrotation Xrotation Yrotation
							JOINT LeftWrist
							{
OFFSET 0 -3.601960 0.000000
CHANNELS 3 Zrotation Xrotation Yrotation
								JOINT lhand
								{
									OFFSET 0 0 0
CHANNELS 3 Zrotation Xrotation Yrotation
									JOINT LFingers
									{
OFFSET 0 -0.450350 0.000000
CHANNELS 3 Zrotation Xrotation Yrotation
										End Site
										{
OFFSET 0 -0.363080 0.000000
										}
									}
								}
								JOINT LThumb
								{
OFFSET 0 0.000000 0.000000
CHANNELS 3 Zrotation Xrotation Yrotation
									End Site
									{
OFFSET 0 -0.368620 0.368620
									}
								}
							}
						}
					}
				}
				JOINT RightCollar
				{
					OFFSET 0 0 0
					CHANNELS 3 Zrotation Yrotation Xrotation
					JOINT RightShoulder
					{
						OFFSET -3.50159 0.80383 -0.71526
CHANNELS 3 Zrotation Xrotation Yrotation
						JOINT RightElbow
						{
OFFSET 0 -5.363940 0.000000
CHANNELS 3 Zrotation Xrotation Yrotation
							JOINT RightWrist
							{
OFFSET 0 -3.580350 0.000000
CHANNELS 3 Zrotation Xrotation Yrotation
								JOINT rhand
								{
									OFFSET 0 0 0
CHANNELS 3 Zrotation Xrotation Yrotation
									JOINT RFingers
									{
OFFSET 0 -0.663750 0.000000
CHANNELS 3 Zrotation Xrotation Yrotation
										End Site
										{
OFFSET 0 -0.535130 0.000000
										}
									}
								}
								JOINT RThumb
								{
OFFSET 0 0.000000 0.000000
CHANNELS 3 Zrotation Xrotation Yrotation
									End Site
									{
OFFSET 0 -0.543300 0.543300
									}
								}
							}
						}
					}
				}
			}
		}
	}
}
MOTION
Frames: 5
Frame Time: 0.008333333333333333
0.449653 17.345225 8.328968 -0.436083 -8.334239 0.741262 0.000000 0.000000 0.000000 -18.006763 2.824583 -6.895996 16.312627 19.665633 79.159207 0.288983 -8.846202 16.929319 0.030577 -1.129430 -3.104956 0.000000 0.000000 0.000000 29.089982 14.890327 -23.882308 -6.744473 -15.112508 47.900527 -0.673955 -1.333950 -16.050072 -0.545915 -4.700635 13.062155 -0.368918 0.513526 16.688611 2.032531 0.792148 0.478648 2.214309 0.440714 -8.902356 -2.116808 -2.778664 -19.441903 1.771511 -3.448642 10.556570 0.533171 -1.598475 6.433708 0.000000 0.000000 0.000000 3.768461 10.952750 -44.914005 113.160123 -57.870794 79.913622 29.051006 -24.444759 -3.114810 0.000000 0.000000 0.000000 -7.125000 0.000000 0.000000 1.998142 33.537003 0.561768 0.000000 0.000000 0.000000 -2.492290 15.340066 46.063486 -110.344805 -58.376245 -77.522979 -25.876764 -24.791412 -34.725994 0.000000 0.000000 0.000000 7.125000 0.000000 0.000000 3.816681 -7.554363 4.294268
0.444360 17.316875 8.438905 -0.986848 -8.327117 0.896787 0.000000 0.000000 0.000000 -17.056489 2.767550 -7.861789 16.676081 19.722500 80.235020 0.251349 -8.740007 16.308357 0.031131 -1.139490 -3.132669 0.000000 0.000000 0.000000 29.851947 14.929180 -23.609725 -6.808018 -15.167324 48.143181 -0.700864 -1.755851 -16.550815 -0.457345 -4.264906 11.833866 0.109045 0.521979 16.800432 2.202993 0.914445 0.425744 2.097527 0.483143 -9.023267 -2.088624 -2.785592 -19.462910 1.726533 -3.457926 10.551111 0.512913 -1.605625 6.434124 0.000000 0.000000 0.000000 3.716582 11.161649 -44.923816 112.637570 -57.967983 79.470466 29.012818 -24.491677 -3.068031 0.000000 0.000000 0.000000 -7.125000 0.000000 0.000000 1.966827 33.482409 0.555505 0.000000 0.000000 0.000000 -2.477269 14.941999 46.137257 -110.084415 -58.418535 -77.301138 -25.841291 -24.926235 -34.723583 0.000000 0.000000 0.000000 7.125000 0.000000 0.000000 3.835442 -7.542890 4.314803
0.439067 17.288524 8.548842 -1.537613 -8.319994 1.052311 0.000000 0.000000 0.000000 -16.106216 2.710517 -8.827582 17.039535 19.779367 81.310833 0.213715 -8.633811 15.687395 0.031686 -1.149549 -3.160382 0.000000 0.000000 0.000000 30.613912 14.968034 -23.337141 -6.871564 -15.222140 48.385834 -0.727773 -2.177751 -17.051559 -0.368774 -3.829177 10.605577 0.587009 0.530431 16.912253 2.373454 1.036742 0.372840 1.980745 0.525571 -9.144178 -2.060440 -2.792521 -19.483916 1.681555 -3.467210 10.545651 0.492655 -1.612775 6.434539 0.000000 0.000000 0.000000 3.664704 11.370549 -44.933626 112.115016 -58.065172 79.027309 28.974629 -24.538595 -3.021252 0.000000 0.000000 0.000000 -7.125000 0.000000 0.000000 1.935511 33.427814 0.549242 0.000000 0.000000 0.000000 -2.462249 14.543931 46.211029 -109.824025 -58.460825 -77.079296 -25.805819 -25.061058 -34.721172 0.000000 0.000000 0.000000 7.125000 0.000000 0.000000 3.854204 -7.531417 4.335338
0.433774 17.260174 8.658779 -2.088378 -8.312872 1.207836 0.000000 0.000000 0.000000 -15.155942 2.653484 -9.793375 17.402989 19.836234 82.386646 0.176081 -8.527615 15.066433 0.032240 -1.159609 -3.188095 0.000000 0.000000 0.000000 31.375877 15.006887 -23.064557 -6.935110 -15.276956 48.628488 -0.754682 -2.599652 -17.552303 -0.280204 -3.393448 9.377288 1.064973 0.538883 17.024075 2.543916 1.159039 0.319937 1.863963 0.567999 -9.265089 -2.032256 -2.799449 -19.504922 1.636577 -3.476493 10.540192 0.472397 -1.619925 6.434955 0.000000 0.000000 0.000000 3.612825 11.579448 -44.943436 111.592462 -58.162361 78.584153 28.936441 -24.585513 -2.974472 0.000000 0.000000 0.000000 -7.125000 0.000000 0.000000 1.904196 33.373220 0.542979 0.000000 0.000000 0.000000 -2.447229 14.145864 46.284801 -109.563635 -58.503114 -76.857455 -25.770346 -25.195881 -34.718761 0.000000 0.000000 0.000000 7.125000 0.000000 0.000000 3.872966 -7.519944 4.355873
0.429691 17.236148 8.768444 -2.526945 -8.232887 1.350809 0.000000 0.000000 0.000000 -14.353520 2.532705 -10.746172 17.730024 19.869826 83.348135 0.154359 -8.335288 14.507117 0.026617 -1.028167 -2.826511 0.000000 0.000000 0.000000 31.972226 14.966700 -22.831902 -6.982002 -15.316478 48.805888 -0.786558 -3.015647 -18.108169 -0.217083 -2.889871 7.978959 1.450529 0.525914 17.098192 2.682480 1.233897 0.304687 1.776781 0.589599 -9.320945 -1.978055 -2.802103 -19.607909 1.583989 -3.483751 10.504342 0.444998 -1.625296 6.438039 0.000000 0.000000 0.000000 3.544294 11.763912 -44.889154 111.137806 -58.240254 78.197454 29.231907 -24.584052 -3.043548 0.000000 0.000000 0.000000 -7.125000 0.000000 0.000000 2.146520 33.461560 0.605923 0.000000 0.000000 0.000000 -2.450517 13.685310 46.381674 -109.376726 -58.532309 -76.698026 -25.707942 -25.291048 -34.806559 0.000000 0.000000 0.000000 7.125000 0.000000 0.000000 3.923576 -7.593762 4.417572
